<?xml version="1.0" standalone="no"?>
<!DOCTYPE svg PUBLIC "-//W3C//DTD SVG 20010904//EN"
 "http://www.w3.org/TR/2001/REC-SVG-20010904/DTD/svg10.dtd">
<svg version="1.0" xmlns="http://www.w3.org/2000/svg"
 width="2000.000000pt" height="2000.000000pt" viewBox="0 0 2000.000000 2000.000000"
 preserveAspectRatio="xMidYMid meet">
<metadata>
Created by potrace 1.14, written by Peter Selinger 2001-2017
</metadata>
<g transform="translate(0.000000,2000.000000) scale(0.100000,-0.100000)"
fill="#000000" stroke="none">
<path d="M12690 15823 c-129 -16 -227 -52 -313 -118 -32 -25 -53 -34 -69 -31
-62 14 -106 17 -258 21 -147 3 -193 0 -330 -20 -160 -24 -391 -121 -543 -228
-133 -93 -341 -323 -431 -477 -29 -50 -136 -267 -136 -276 0 -3 -6 -20 -14
-37 -8 -18 -25 -65 -36 -104 l-22 -73 -71 5 c-198 12 -465 18 -767 18 -317 0
-687 -10 -701 -19 -4 -2 -24 24 -44 59 -188 306 -459 557 -760 702 -94 45
-232 99 -285 110 -8 1 -33 8 -55 14 -161 42 -495 58 -667 32 l-76 -12 -50 36
c-155 111 -344 144 -537 94 -69 -18 -188 -87 -246 -142 -180 -169 -239 -401
-166 -662 1 -5 18 -41 37 -80 61 -124 208 -253 342 -299 76 -25 98 -29 200
-31 178 -4 313 51 443 180 88 87 140 177 169 290 16 62 17 261 1 298 -8 19 5
20 175 18 355 -2 696 -147 955 -405 103 -103 192 -213 181 -224 -8 -7 -9 -7
-99 -16 -84 -8 -298 -37 -377 -51 -14 -2 -43 -7 -65 -10 -68 -9 -249 -45 -365
-71 -187 -42 -294 -72 -500 -141 -121 -40 -154 -52 -225 -83 -11 -5 -58 -25
-105 -45 -232 -99 -509 -269 -674 -414 -52 -46 -205 -205 -228 -237 -13 -18
-56 -76 -97 -130 -389 -516 -743 -1279 -949 -2044 -55 -202 -126 -518 -147
-650 -3 -19 -7 -46 -10 -60 -3 -14 -7 -41 -10 -60 -3 -19 -8 -46 -10 -60 -3
-14 -7 -43 -10 -65 -6 -58 -15 -127 -19 -150 -2 -11 -7 -49 -10 -85 -4 -36 -9
-85 -11 -110 -12 -120 -15 -153 -20 -263 l-7 -118 -44 -62 c-24 -34 -69 -98
-101 -142 -72 -100 -135 -190 -148 -213 -5 -9 -12 -19 -15 -22 -12 -11 -191
-292 -265 -415 -151 -251 -282 -527 -321 -678 -68 -264 -11 -431 180 -521 39
-19 87 -37 106 -41 55 -11 230 -15 280 -5 25 4 61 11 80 14 95 15 291 83 423
147 65 31 62 34 92 -61 10 -30 23 -68 30 -85 7 -16 32 -77 55 -135 48 -117
169 -356 225 -446 198 -315 378 -523 640 -743 100 -83 374 -240 555 -316 36
-15 79 -33 95 -40 105 -44 464 -159 561 -180 10 -2 66 -15 124 -29 58 -14 116
-27 130 -30 14 -2 95 -18 180 -35 85 -16 173 -33 195 -36 22 -3 67 -10 100
-15 33 -5 83 -12 110 -15 28 -4 61 -8 75 -10 14 -2 45 -7 70 -10 25 -3 63 -7
85 -10 22 -3 63 -7 90 -10 28 -3 77 -8 110 -11 33 -4 78 -8 100 -10 22 -1 74
-5 115 -9 130 -11 172 -14 275 -20 563 -34 1271 -37 1985 -10 126 5 356 16
395 20 22 2 94 6 160 10 66 4 138 9 160 11 22 1 78 6 125 9 47 3 101 8 120 10
19 2 80 7 135 11 55 3 107 8 116 9 8 2 55 6 105 10 49 4 97 9 107 11 10 2 55
6 100 9 45 4 89 8 97 10 8 2 53 7 100 11 47 3 87 8 90 9 3 2 41 6 85 10 44 4
82 9 85 10 3 2 37 6 75 10 39 4 79 9 90 11 11 2 44 7 74 10 30 3 63 7 74 10
11 2 45 6 76 9 31 4 63 8 71 10 8 2 38 7 65 10 28 4 61 8 75 10 14 3 43 7 65
10 85 13 213 34 240 39 30 6 108 19 125 21 52 7 273 48 324 60 34 8 79 17 101
21 22 3 43 8 46 10 3 2 20 6 37 9 65 11 307 77 391 107 140 49 236 109 352
219 87 83 202 232 284 370 45 75 181 359 220 459 64 162 178 512 200 610 1 8
8 35 15 60 7 25 14 52 16 60 7 30 55 236 60 260 12 61 10 60 67 38 214 -83
393 -94 562 -36 132 46 193 109 199 206 6 97 -50 217 -235 505 -61 95 -117
181 -123 192 -6 11 -13 22 -16 25 -3 3 -13 19 -23 35 -9 17 -43 72 -75 123
-31 51 -65 108 -76 125 -10 18 -42 73 -71 122 -29 50 -75 133 -102 186 -28 52
-56 104 -61 115 -28 49 -137 286 -178 387 -25 62 -49 121 -54 132 -19 43 -92
273 -120 378 -71 271 -99 471 -101 718 -1 100 8 245 16 279 12 46 20 197 20
355 0 237 -13 350 -59 535 -61 241 -211 541 -361 719 -285 340 -637 592 -1087
776 -156 64 -489 165 -743 224 -49 12 -101 24 -115 28 -14 3 -29 7 -35 8 -26
7 -514 105 -540 110 -91 16 -163 28 -188 31 -15 2 -39 6 -55 9 -36 7 -137 23
-187 30 -22 3 -51 8 -65 10 -45 8 -194 30 -280 41 -19 2 -69 9 -110 14 -41 5
-97 12 -125 15 -27 3 -66 8 -85 10 -95 12 -138 17 -165 19 -16 2 -61 6 -100
10 -127 12 -159 15 -235 22 -87 7 -121 11 -127 17 -6 6 39 121 85 218 41 86
139 240 186 294 107 121 191 191 311 260 189 107 388 148 670 137 l40 -2 -2
-92 c-2 -81 1 -110 21 -188 23 -89 116 -216 206 -282 94 -68 184 -98 310 -103
430 -16 710 424 517 815 -61 124 -233 264 -352 285 -100 18 -140 22 -175 18z"/>
</g>
</svg>
