<svg width="393" height="37" viewBox="0 0 393 37" fill="none" xmlns="http://www.w3.org/2000/svg">
<g filter="url(#filter0_f_1661_21725)">
<path d="M200.981 6.3788C199.344 13.7825 196.527 16.9978 195.353 18.3652C195.097 17.8248 191.362 20.1585 189.73 17.6865C188.679 20.4677 183.867 19.0935 183.601 19.2964C183.423 19.0511 178.376 16.8156 178.673 14.9831C177.135 16.0253 173.795 13.4998 173.337 13.4962C173.337 12.5137 171.651 7.65791 173.289 0.254188C174.993 -7.45042 190.446 -21.9962 192.627 -21.5139C194.807 -21.0316 202.202 0.860454 200.981 6.3788Z" fill="url(#paint0_linear_1661_21725)"/>
<path d="M223.785 -7.10813C227.931 -0.759594 228.259 3.50259 228.415 5.29797C227.85 5.10293 226.906 9.40476 223.998 8.84213C225.25 11.5384 220.902 14.0168 220.861 14.3488C220.562 14.3043 215.434 16.3478 214.332 14.8543C214.001 16.6822 209.86 17.3032 209.537 17.6276C208.835 16.9408 204.185 14.7494 200.039 8.40087C195.724 1.79433 196.136 -19.4238 198.006 -20.6451C199.876 -21.8665 220.694 -11.84 223.785 -7.10813Z" fill="url(#paint1_linear_1661_21725)"/>
<path d="M174.767 2.72348C168.479 6.96091 164.222 7.35008 162.429 7.53228C162.616 6.96417 158.301 6.08181 158.821 3.1659C156.143 4.45749 153.603 0.145666 153.27 0.10944C153.31 -0.190899 151.193 -5.28833 152.671 -6.41217C150.838 -6.71634 150.157 -10.8483 149.828 -11.1661C150.505 -11.8785 152.629 -16.559 158.917 -20.7964C165.461 -25.2061 186.683 -25.1 187.931 -23.2479C189.179 -21.3957 179.454 -0.434884 174.767 2.72348Z" fill="url(#paint2_linear_1661_21725)"/>
</g>
<g filter="url(#filter1_f_1661_21725)">
<path d="M306.073 -2.11792C308.912 4.91352 308.408 9.15847 308.213 10.9501C307.696 10.6493 305.936 14.6867 303.192 13.5714C303.899 16.4593 299.154 18.0486 299.049 18.3664C298.764 18.2646 293.337 19.2762 292.545 17.5975C291.867 19.3268 287.684 19.1339 287.304 19.3897C286.748 18.5798 282.611 15.5293 279.773 8.49784C276.82 1.18063 281.334 -19.5559 283.405 -20.3919C285.476 -21.2279 303.958 -7.35879 306.073 -2.11792Z" fill="url(#paint3_linear_1661_21725)"/>
<path d="M317.248 -26.1393C324.258 -23.25 326.94 -19.9208 328.084 -18.5288C327.508 -18.3698 329.162 -14.2882 326.446 -13.107C329.005 -11.5924 326.821 -7.08896 326.975 -6.79199C326.703 -6.65913 323.631 -2.07346 321.877 -2.68129C322.638 -0.987014 319.575 1.86791 319.492 2.31781C318.524 2.14897 313.451 2.97215 306.44 0.082795C299.145 -2.92398 287.481 -20.6535 288.332 -22.7185C289.183 -24.7835 312.022 -28.2929 317.248 -26.1393Z" fill="url(#paint4_linear_1661_21725)"/>
<path d="M282.39 9.69833C279.602 16.7498 276.311 19.479 274.936 20.6435C274.769 20.0693 270.711 21.7828 269.491 19.0838C268.014 21.6637 263.479 19.5456 263.184 19.7038C263.048 19.4334 258.418 16.4278 259.001 14.6653C257.318 15.4511 254.419 12.4289 253.968 12.353C254.123 11.3828 253.226 6.32154 256.014 -0.729924C258.916 -8.06797 276.475 -19.986 278.552 -19.1648C280.629 -18.3436 284.468 4.44254 282.39 9.69833Z" fill="url(#paint5_linear_1661_21725)"/>
</g>
<g filter="url(#filter2_f_1661_21725)">
<path d="M91.1769 -0.432431C93.8409 7.04703 93.1293 11.4662 92.8481 13.3321C92.3204 12.995 90.304 17.1424 87.4816 15.8565C88.0958 18.9085 83.0618 20.3651 82.9387 20.693C82.6445 20.5742 76.9238 21.3969 76.1678 19.6062C75.383 21.3859 71.015 21.0024 70.6072 21.2536C70.0604 20.3822 65.8649 17.0111 63.201 9.53163C60.4288 1.7482 66.0517 -19.7501 68.2548 -20.5348C70.4579 -21.3194 89.1914 -6.00723 91.1769 -0.432431Z" fill="url(#paint6_linear_1661_21725)"/>
<path d="M103.91 -25.0787C111.119 -21.7515 113.78 -18.1521 114.917 -16.6461C114.307 -16.5048 115.861 -12.1628 112.968 -11.045C115.579 -9.34934 113.099 -4.73271 113.247 -4.41533C112.957 -4.28816 109.544 0.375924 107.735 -0.336147C108.458 1.46946 105.129 4.32321 105.023 4.79032C104.018 4.57165 98.6742 5.21254 91.4653 1.88531C83.9634 -1.57714 72.5308 -20.632 73.5109 -22.7554C74.4909 -24.8789 98.5373 -27.5587 103.91 -25.0787Z" fill="url(#paint7_linear_1661_21725)"/>
<path d="M65.8862 10.9022C62.6632 18.1583 59.1025 20.8707 57.6131 22.0293C57.463 21.4213 53.1438 23.0377 51.9845 20.1611C50.3266 22.7961 45.6747 20.3832 45.3595 20.536C45.2282 20.2471 40.5154 16.9016 41.2013 15.083C39.4063 15.832 36.5049 12.5444 36.0363 12.4454C36.2405 11.4371 35.5226 6.10313 38.7456 -1.15298C42.0996 -8.70398 60.9878 -20.41 63.1251 -19.4607C65.2624 -18.5113 68.2885 5.4939 65.8862 10.9022Z" fill="url(#paint8_linear_1661_21725)"/>
</g>
<g filter="url(#filter3_f_1661_21725)">
<path d="M352.191 0.491951C352.729 1.85103 353.672 3.38926 355.035 4.34682C363.01 9.95207 371.01 6.16347 377.76 1.68278C379.831 0.307944 381.825 0.0344594 383.491 -1.67605C381.064 -4.66242 380.327 -6.06316 379.014 -14.5198C374.73 -14.9168 368.852 -14.6878 365.341 -14.0589C357.844 -12.7161 349.635 -5.96306 352.191 0.491951Z" fill="url(#paint9_linear_1661_21725)"/>
<path d="M366.96 22.3435C368.164 23.1733 369.804 23.9263 371.468 23.9639C381.214 24.1833 385.752 16.5842 388.868 9.10535C389.824 6.81055 392.622 5.49946 393.055 3.15083C389.377 2.0202 383.835 0.207826 380.598 -6.17726C376.817 -4.12311 372.357 0.460059 369.79 2.93611C364.308 8.22324 361.245 18.4022 366.96 22.3435Z" fill="url(#paint10_linear_1661_21725)"/>
<path d="M389.026 32.3039C390.485 32.4023 392.279 32.2117 393.729 31.3934C402.219 26.6022 402.237 17.7512 401.094 9.73055C400.743 7.26952 400.529 4.25867 399.701 2.01852C395.962 2.92625 391.188 3.5445 386.58 0.712294C384.38 4.40983 382.484 10.7353 381.542 14.1754C379.532 21.5211 382.099 31.8362 389.026 32.3039Z" fill="url(#paint11_linear_1661_21725)"/>
</g>
<g filter="url(#filter4_f_1661_21725)">
<path d="M221.733 8.74763C222.809 9.73712 224.328 10.7115 225.971 10.9809C235.591 12.5571 241.145 5.6652 245.273 -1.30623C246.539 -3.44531 249.494 -4.35331 250.25 -6.61862C246.765 -8.25118 241.53 -10.8186 239.215 -17.5927C235.184 -16.0859 230.129 -12.1694 227.241 -10.0756C221.076 -5.60446 216.623 4.04786 221.733 8.74763Z" fill="url(#paint12_linear_1661_21725)"/>
<path d="M242.195 21.6896C243.625 21.9904 245.429 22.052 246.979 21.4438C256.054 17.8834 257.306 9.12136 257.292 1.01962C257.288 -1.46629 257.496 -4.47753 256.989 -6.81122C253.159 -6.43388 248.346 -6.48734 244.178 -9.93437C241.484 -6.57979 238.724 -0.580559 237.312 2.69464C234.297 9.68819 235.401 20.2606 242.195 21.6896Z" fill="url(#paint13_linear_1661_21725)"/>
<path d="M268.78 21.0355C270.171 20.586 271.766 19.7435 272.81 18.4457C278.917 10.8477 275.652 2.62099 271.615 -4.40359C270.377 -6.55898 270.232 -8.56629 268.633 -10.3397C265.496 -8.10969 264.051 -7.46415 255.527 -6.69904C254.855 -2.44916 254.705 3.4314 255.106 6.97538C255.963 14.5428 262.173 23.17 268.78 21.0355Z" fill="url(#paint14_linear_1661_21725)"/>
<path d="M291.539 7.70387C292.444 6.55643 293.302 4.96846 293.446 3.30954C294.293 -6.40193 287.002 -11.4204 279.739 -15.0109C277.511 -16.1126 276.383 -18.99 274.067 -19.5734C272.702 -15.9752 270.536 -10.5619 263.956 -7.74253C265.762 -3.83734 270.049 0.908749 272.354 3.63004C277.277 9.44076 287.238 13.1535 291.539 7.70387Z" fill="url(#paint15_linear_1661_21725)"/>
</g>
<g filter="url(#filter5_f_1661_21725)">
<path d="M-0.44162 9.22104C0.799452 9.99335 2.47292 10.6685 4.13764 10.6278C13.883 10.3888 18.0592 2.58489 20.8194 -5.03217C21.6664 -7.36935 24.4004 -8.81055 24.7225 -11.1769C20.9948 -12.1334 15.3741 -13.6833 11.8402 -19.9092C8.1602 -17.6796 3.92044 -12.8918 1.47254 -10.2979C-3.7544 -4.75893 -6.3359 5.55276 -0.44162 9.22104Z" fill="url(#paint16_linear_1661_21725)"/>
<path d="M22.0683 18.1332C23.5298 18.1629 25.3133 17.8882 26.7235 17.0026C34.9786 11.8177 34.581 2.9756 33.0617 -4.98243C32.5955 -7.42424 32.2405 -10.4217 31.3083 -12.6205C27.6152 -11.538 22.8759 -10.696 18.1404 -13.3085C16.1163 -9.51167 14.5193 -3.10402 13.7404 0.376544C12.0775 7.80859 15.1272 17.9916 22.0683 18.1332Z" fill="url(#paint17_linear_1661_21725)"/>
<path d="M48.0686 12.5497C49.3518 11.8496 50.7632 10.7252 51.5472 9.25609C56.1362 0.655478 51.3989 -6.82108 46.1272 -12.9732C44.5097 -14.8608 43.9947 -16.8063 42.0934 -18.2516C39.4259 -15.4775 38.1257 -14.5746 29.8927 -12.2389C30.0221 -7.93809 30.9674 -2.13206 32.0204 1.27559C34.2689 8.55191 41.9741 15.8748 48.0686 12.5497Z" fill="url(#paint18_linear_1661_21725)"/>
<path d="M67.9539 -4.77813C68.6304 -6.07388 69.1776 -7.79348 69.0115 -9.45039C68.0387 -19.1501 59.9422 -22.7262 52.1388 -24.9045C49.7444 -25.5729 48.1013 -28.1905 45.7173 -28.3334C45.0445 -24.5442 43.9227 -18.8227 37.9809 -14.8295C40.4814 -11.3281 45.5751 -7.4612 48.3462 -5.21577C54.2633 -0.421145 64.7402 1.37585 67.9539 -4.77813Z" fill="url(#paint19_linear_1661_21725)"/>
</g>
<defs>
<filter id="filter0_f_1661_21725" x="138.604" y="-43.2266" width="102.443" height="74.2891" filterUnits="userSpaceOnUse" color-interpolation-filters="sRGB">
<feFlood flood-opacity="0" result="BackgroundImageFix"/>
<feBlend mode="normal" in="SourceGraphic" in2="BackgroundImageFix" result="shape"/>
<feGaussianBlur stdDeviation="1" result="effect1_foregroundBlur_1661_21725"/>
</filter>
<filter id="filter1_f_1661_21725" x="236.659" y="-49.0117" width="106.333" height="85.8594" filterUnits="userSpaceOnUse" color-interpolation-filters="sRGB">
<feFlood flood-opacity="0" result="BackgroundImageFix"/>
<feBlend mode="normal" in="SourceGraphic" in2="BackgroundImageFix" result="shape"/>
<feGaussianBlur stdDeviation="1" result="effect1_foregroundBlur_1661_21725"/>
</filter>
<filter id="filter2_f_1661_21725" x="19.1474" y="-48.7324" width="110.407" height="86.8965" filterUnits="userSpaceOnUse" color-interpolation-filters="sRGB">
<feFlood flood-opacity="0" result="BackgroundImageFix"/>
<feBlend mode="normal" in="SourceGraphic" in2="BackgroundImageFix" result="shape"/>
<feGaussianBlur stdDeviation="1" result="effect1_foregroundBlur_1661_21725"/>
</filter>
<filter id="filter3_f_1661_21725" x="348" y="-19" width="57.8079" height="56.8906" filterUnits="userSpaceOnUse" color-interpolation-filters="sRGB">
<feFlood flood-opacity="0" result="BackgroundImageFix"/>
<feBlend mode="normal" in="SourceGraphic" in2="BackgroundImageFix" result="shape"/>
<feGaussianBlur stdDeviation="1" result="effect1_foregroundBlur_1661_21725"/>
</filter>
<filter id="filter4_f_1661_21725" x="207.38" y="-30.2734" width="98.1981" height="54.373" filterUnits="userSpaceOnUse" color-interpolation-filters="sRGB">
<feFlood flood-opacity="0" result="BackgroundImageFix"/>
<feBlend mode="normal" in="SourceGraphic" in2="BackgroundImageFix" result="shape"/>
<feGaussianBlur stdDeviation="1" result="effect1_foregroundBlur_1661_21725"/>
</filter>
<filter id="filter5_f_1661_21725" x="-21.2639" y="-44" width="105.528" height="70.2676" filterUnits="userSpaceOnUse" color-interpolation-filters="sRGB">
<feFlood flood-opacity="0" result="BackgroundImageFix"/>
<feBlend mode="normal" in="SourceGraphic" in2="BackgroundImageFix" result="shape"/>
<feGaussianBlur stdDeviation="1" result="effect1_foregroundBlur_1661_21725"/>
</filter>
<linearGradient id="paint0_linear_1661_21725" x1="183.601" y1="19.2964" x2="192.627" y2="-21.5139" gradientUnits="userSpaceOnUse">
<stop stop-color="#494F37"/>
<stop offset="1" stop-color="#3A3F2C"/>
</linearGradient>
<linearGradient id="paint1_linear_1661_21725" x1="220.861" y1="14.3488" x2="198.006" y2="-20.6451" gradientUnits="userSpaceOnUse">
<stop stop-color="#494F37"/>
<stop offset="1" stop-color="#3A3F2C"/>
</linearGradient>
<linearGradient id="paint2_linear_1661_21725" x1="153.27" y1="0.109442" x2="187.931" y2="-23.2479" gradientUnits="userSpaceOnUse">
<stop stop-color="#494F37"/>
<stop offset="1" stop-color="#3A3F2C"/>
</linearGradient>
<linearGradient id="paint3_linear_1661_21725" x1="299.049" y1="18.3664" x2="283.405" y2="-20.3919" gradientUnits="userSpaceOnUse">
<stop stop-color="#494F37"/>
<stop offset="1" stop-color="#3A3F2C"/>
</linearGradient>
<linearGradient id="paint4_linear_1661_21725" x1="326.975" y1="-6.79199" x2="288.332" y2="-22.7185" gradientUnits="userSpaceOnUse">
<stop stop-color="#494F37"/>
<stop offset="1" stop-color="#3A3F2C"/>
</linearGradient>
<linearGradient id="paint5_linear_1661_21725" x1="263.184" y1="19.7038" x2="278.552" y2="-19.1648" gradientUnits="userSpaceOnUse">
<stop stop-color="#494F37"/>
<stop offset="1" stop-color="#3A3F2C"/>
</linearGradient>
<linearGradient id="paint6_linear_1661_21725" x1="82.9387" y1="20.693" x2="68.2548" y2="-20.5348" gradientUnits="userSpaceOnUse">
<stop stop-color="#494F37"/>
<stop offset="1" stop-color="#3A3F2C"/>
</linearGradient>
<linearGradient id="paint7_linear_1661_21725" x1="113.247" y1="-4.41533" x2="73.5109" y2="-22.7554" gradientUnits="userSpaceOnUse">
<stop stop-color="#494F37"/>
<stop offset="1" stop-color="#3A3F2C"/>
</linearGradient>
<linearGradient id="paint8_linear_1661_21725" x1="45.3595" y1="20.536" x2="63.1251" y2="-19.4607" gradientUnits="userSpaceOnUse">
<stop stop-color="#494F37"/>
<stop offset="1" stop-color="#3A3F2C"/>
</linearGradient>
<linearGradient id="paint9_linear_1661_21725" x1="351.877" y1="-0.520684" x2="382.284" y2="-7.18361" gradientUnits="userSpaceOnUse">
<stop stop-color="#FBD100"/>
<stop offset="1" stop-color="#C9A700"/>
</linearGradient>
<linearGradient id="paint10_linear_1661_21725" x1="366.136" y1="21.6768" x2="388.302" y2="-1.41271" gradientUnits="userSpaceOnUse">
<stop stop-color="#FBD100"/>
<stop offset="1" stop-color="#C9A700"/>
</linearGradient>
<linearGradient id="paint11_linear_1661_21725" x1="387.977" y1="32.1521" x2="395.233" y2="0.978419" gradientUnits="userSpaceOnUse">
<stop stop-color="#FBD100"/>
<stop offset="1" stop-color="#C9A700"/>
</linearGradient>
<linearGradient id="paint12_linear_1661_21725" x1="221.01" y1="7.97254" x2="246.179" y2="-11.8005" gradientUnits="userSpaceOnUse">
<stop stop-color="#FBD100"/>
<stop offset="1" stop-color="#C9A700"/>
</linearGradient>
<linearGradient id="paint13_linear_1661_21725" x1="241.177" y1="21.393" x2="252.709" y2="-8.46428" gradientUnits="userSpaceOnUse">
<stop stop-color="#FBD100"/>
<stop offset="1" stop-color="#C9A700"/>
</linearGradient>
<linearGradient id="paint14_linear_1661_21725" x1="267.749" y1="21.2836" x2="263.059" y2="-9.48992" gradientUnits="userSpaceOnUse">
<stop stop-color="#FBD100"/>
<stop offset="1" stop-color="#C9A700"/>
</linearGradient>
<linearGradient id="paint15_linear_1661_21725" x1="290.82" y1="8.48362" x2="269.207" y2="-15.1235" gradientUnits="userSpaceOnUse">
<stop stop-color="#FBD100"/>
<stop offset="1" stop-color="#C9A700"/>
</linearGradient>
<linearGradient id="paint16_linear_1661_21725" x1="-1.29645" y1="8.59389" x2="19.7595" y2="-15.512" gradientUnits="userSpaceOnUse">
<stop stop-color="#FBD100"/>
<stop offset="1" stop-color="#C9A700"/>
</linearGradient>
<linearGradient id="paint17_linear_1661_21725" x1="21.0131" y1="18.0309" x2="26.7959" y2="-13.4494" gradientUnits="userSpaceOnUse">
<stop stop-color="#FBD100"/>
<stop offset="1" stop-color="#C9A700"/>
</linearGradient>
<linearGradient id="paint18_linear_1661_21725" x1="47.1019" y1="12.9851" x2="36.7745" y2="-16.3808" gradientUnits="userSpaceOnUse">
<stop stop-color="#FBD100"/>
<stop offset="1" stop-color="#C9A700"/>
</linearGradient>
<linearGradient id="paint19_linear_1661_21725" x1="67.3929" y1="-3.87847" x2="41.7687" y2="-23.0578" gradientUnits="userSpaceOnUse">
<stop stop-color="#FBD100"/>
<stop offset="1" stop-color="#C9A700"/>
</linearGradient>
</defs>
</svg>
